<svg width="512" height="512" viewBox="0 0 512 512" fill="none" xmlns="http://www.w3.org/2000/svg">
<g clip-path="url(#clip0_1_2)">
<circle cx="256" cy="256" r="255.5" fill="#D22730" stroke="#7A7A7A"/>
<g filter="url(#filter0_d_1_2)">
<path d="M206 247.846C210.102 247.455 214.057 246.723 217.865 245.648C221.771 244.574 225.336 243.402 228.559 242.133C231.879 240.863 234.76 239.594 237.201 238.324C239.643 236.957 241.547 235.736 242.914 234.662C245.941 247.357 256.635 282.562 274.994 340.277C288.373 382.465 297.602 406.537 302.68 412.494C307.27 405.658 315.766 385.98 328.168 353.461L324.945 344.672C306.781 296.137 291.547 263.861 279.242 247.846C282.953 247.455 286.713 246.771 290.521 245.795C294.33 244.721 297.895 243.549 301.215 242.279C304.535 241.01 307.514 239.691 310.15 238.324C312.787 236.957 314.789 235.736 316.156 234.662C319.184 247.846 327.533 275.678 341.205 318.158C348.432 298.529 353.852 283.002 357.465 271.576C361.176 260.15 363.031 252.68 363.031 249.164V247.26C376.996 244.525 386.957 240.326 392.914 234.662C378.852 261.811 363.764 296.381 347.65 338.373C361.322 381.83 370.746 406.537 375.922 412.494C381.391 404.584 391.84 379.682 407.27 337.787C416.84 311.615 424.066 291.205 428.949 276.557C433.832 261.811 436.273 252.68 436.273 249.164V247.26C450.238 244.232 460.199 240.033 466.156 234.662C459.906 246.869 452.973 261.566 445.355 278.754C437.836 295.941 429.633 315.912 420.746 338.666C405.316 377.729 395.795 410.541 392.182 437.104L391.596 442.963C385.639 443.646 379.682 445.062 373.725 447.211C367.865 449.262 361.518 452.191 354.682 456C352.143 432.953 345.551 405.316 334.906 373.09C330.805 385.297 327.436 396.723 324.799 407.367C322.162 417.914 320.209 427.826 318.939 437.104L318.354 442.963C312.396 443.646 306.439 445.062 300.482 447.211C294.623 449.262 288.275 452.191 281.439 456C278.217 426.605 268.305 389.496 251.703 344.672C233.539 296.137 218.305 263.861 206 247.846Z" fill="white"/>
<path d="M206 247.846L205.905 246.85L204.106 247.022L205.207 248.455L206 247.846ZM217.865 245.648L217.6 244.684L217.594 244.686L217.865 245.648ZM228.559 242.133L228.201 241.199L228.192 241.202L228.559 242.133ZM237.201 238.324L237.663 239.211L237.676 239.204L237.69 239.197L237.201 238.324ZM242.914 234.662L243.887 234.43L243.524 232.911L242.296 233.876L242.914 234.662ZM274.994 340.277L275.947 339.975L275.947 339.974L274.994 340.277ZM302.68 412.494L301.919 413.143L302.775 414.147L303.51 413.052L302.68 412.494ZM328.168 353.461L329.102 353.817L329.236 353.468L329.107 353.117L328.168 353.461ZM324.945 344.672L325.884 344.328L325.882 344.321L324.945 344.672ZM279.242 247.846L279.138 246.851L277.361 247.038L278.449 248.455L279.242 247.846ZM290.521 245.795L290.77 246.764L290.781 246.761L290.793 246.757L290.521 245.795ZM316.156 234.662L317.131 234.438L316.778 232.902L315.538 233.876L316.156 234.662ZM341.205 318.158L340.253 318.465L341.142 321.225L342.144 318.504L341.205 318.158ZM357.465 271.576L356.514 271.267L356.511 271.275L357.465 271.576ZM363.031 247.26L362.839 246.278L362.031 246.437V247.26H363.031ZM392.914 234.662L393.802 235.122L392.225 233.937L392.914 234.662ZM347.65 338.373L346.717 338.015L346.592 338.34L346.696 338.673L347.65 338.373ZM375.922 412.494L375.167 413.15L376.012 414.122L376.744 413.063L375.922 412.494ZM407.27 337.787L408.208 338.133L408.209 338.131L407.27 337.787ZM428.949 276.557L429.898 276.873L429.899 276.871L428.949 276.557ZM436.273 247.26L436.062 246.282L435.273 246.453V247.26H436.273ZM466.156 234.662L467.046 235.118L465.487 233.919L466.156 234.662ZM445.355 278.754L444.441 278.349L444.439 278.353L445.355 278.754ZM420.746 338.666L421.676 339.033L421.678 339.03L420.746 338.666ZM392.182 437.104L391.191 436.969L391.188 436.986L391.187 437.004L392.182 437.104ZM391.596 442.963L391.71 443.956L392.511 443.864L392.591 443.062L391.596 442.963ZM373.725 447.211L374.055 448.155L374.064 448.152L373.725 447.211ZM354.682 456L353.688 456.11L353.853 457.607L355.168 456.874L354.682 456ZM334.906 373.09L335.856 372.776L334.914 369.926L333.958 372.771L334.906 373.09ZM324.799 407.367L325.769 407.61L325.769 407.608L324.799 407.367ZM318.939 437.104L317.949 436.968L317.946 436.986L317.944 437.004L318.939 437.104ZM318.354 442.963L318.468 443.956L319.268 443.864L319.349 443.062L318.354 442.963ZM300.482 447.211L300.813 448.155L300.822 448.152L300.482 447.211ZM281.439 456L280.445 456.109L280.61 457.607L281.926 456.874L281.439 456ZM251.703 344.672L252.641 344.325L252.64 344.321L251.703 344.672ZM206.095 248.841C210.254 248.445 214.268 247.702 218.137 246.611L217.594 244.686C213.845 245.743 209.949 246.465 205.905 246.85L206.095 248.841ZM218.13 246.613C222.065 245.531 225.664 244.348 228.925 243.063L228.192 241.202C225.008 242.457 221.478 243.618 217.6 244.684L218.13 246.613ZM228.916 243.067C232.262 241.787 235.179 240.503 237.663 239.211L236.74 237.437C234.34 238.685 231.496 239.939 228.201 241.199L228.916 243.067ZM237.69 239.197C240.153 237.817 242.107 236.568 243.532 235.448L242.296 233.876C240.987 234.905 239.132 236.097 236.713 237.452L237.69 239.197ZM241.941 234.894C244.979 247.634 255.687 282.882 274.041 340.58L275.947 339.974C257.582 282.243 246.903 247.081 243.887 234.43L241.941 234.894ZM274.041 340.58C280.733 361.681 286.391 378.267 291.016 390.33C293.328 396.361 295.386 401.273 297.19 405.06C298.984 408.825 300.559 411.548 301.919 413.143L303.441 411.845C302.262 410.462 300.779 407.942 298.996 404.2C297.223 400.479 295.186 395.62 292.883 389.614C288.279 377.605 282.634 361.061 275.947 339.975L274.041 340.58ZM303.51 413.052C305.863 409.547 309.166 402.839 313.412 393.005C317.668 383.148 322.899 370.083 329.102 353.817L327.234 353.105C321.035 369.358 315.816 382.392 311.576 392.212C307.326 402.057 304.086 408.605 301.849 411.937L303.51 413.052ZM329.107 353.117L325.884 344.328L324.006 345.016L327.229 353.805L329.107 353.117ZM325.882 344.321C307.721 295.794 292.442 263.385 280.035 247.236L278.449 248.455C290.651 264.337 305.842 296.479 324.009 345.022L325.882 344.321ZM279.347 248.84C283.109 248.444 286.917 247.752 290.77 246.764L290.273 244.826C286.509 245.791 282.797 246.466 279.138 246.851L279.347 248.84ZM290.793 246.757C294.627 245.676 298.221 244.495 301.572 243.213L300.858 241.345C297.568 242.603 294.033 243.766 290.25 244.832L290.793 246.757ZM301.572 243.213C304.921 241.933 307.935 240.6 310.611 239.212L309.69 237.436C307.093 238.783 304.149 240.087 300.858 241.345L301.572 243.213ZM310.611 239.212C313.27 237.833 315.335 236.579 316.774 235.448L315.538 233.876C314.243 234.894 312.304 236.081 309.69 237.436L310.611 239.212ZM315.182 234.886C318.22 248.119 326.584 275.994 340.253 318.465L342.157 317.852C328.482 275.362 320.147 247.572 317.131 234.438L315.182 234.886ZM342.144 318.504C349.372 298.869 354.798 283.325 358.418 271.878L356.511 271.275C352.905 282.679 347.491 298.189 340.267 317.813L342.144 318.504ZM358.416 271.885C360.275 266.161 361.675 261.412 362.61 257.645C363.54 253.901 364.031 251.053 364.031 249.164H362.031C362.031 250.791 361.595 253.436 360.669 257.163C359.749 260.866 358.365 265.566 356.514 271.267L358.416 271.885ZM364.031 249.164V247.26H362.031V249.164H364.031ZM363.223 248.241C377.255 245.494 387.44 241.246 393.603 235.387L392.225 233.937C386.474 239.406 376.737 243.557 362.839 246.278L363.223 248.241ZM392.026 234.202C377.941 261.395 362.838 296.002 346.717 338.015L348.584 338.731C364.69 296.759 379.763 262.226 393.802 235.122L392.026 234.202ZM346.696 338.673C353.535 360.409 359.316 377.472 364.038 389.852C366.399 396.042 368.5 401.074 370.341 404.941C372.17 408.784 373.778 411.551 375.167 413.15L376.677 411.838C375.478 410.459 373.967 407.904 372.146 404.081C370.337 400.281 368.258 395.304 365.907 389.14C361.205 376.813 355.438 359.794 348.604 338.073L346.696 338.673ZM376.744 413.063C379.547 409.009 383.563 400.711 388.782 388.272C394.015 375.801 400.491 359.086 408.208 338.133L406.331 337.442C398.619 358.383 392.155 375.066 386.938 387.498C381.709 399.961 377.766 408.069 375.099 411.925L376.744 413.063ZM408.209 338.131C417.78 311.956 425.011 291.535 429.898 276.873L428.001 276.24C423.122 290.875 415.9 311.275 406.33 337.444L408.209 338.131ZM429.899 276.871C432.343 269.49 434.181 263.5 435.408 258.907C436.626 254.353 437.273 251.071 437.273 249.164H435.273C435.273 250.772 434.7 253.814 433.476 258.391C432.263 262.929 430.439 268.878 428 276.242L429.899 276.871ZM437.273 249.164V247.26H435.273V249.164H437.273ZM436.485 248.237C450.506 245.198 460.674 240.952 466.826 235.405L465.487 233.919C459.725 239.114 449.971 243.267 436.062 246.282L436.485 248.237ZM465.266 234.206C459.005 246.435 452.063 261.15 444.441 278.349L446.27 279.159C453.882 261.983 460.807 247.303 467.046 235.118L465.266 234.206ZM444.439 278.353C436.913 295.556 428.705 315.539 419.815 338.302L421.678 339.03C430.561 316.285 438.759 296.327 446.272 279.155L444.439 278.353ZM419.816 338.299C404.371 377.399 394.819 410.295 391.191 436.969L393.173 437.238C396.771 410.787 406.261 378.058 421.676 339.033L419.816 338.299ZM391.187 437.004L390.601 442.863L392.591 443.062L393.177 437.203L391.187 437.004ZM391.482 441.969C385.444 442.662 379.411 444.097 373.385 446.27L374.064 448.152C379.952 446.028 385.834 444.631 391.71 443.956L391.482 441.969ZM373.394 446.267C367.469 448.341 361.069 451.297 354.195 455.126L355.168 456.874C361.967 453.086 368.261 450.183 374.055 448.155L373.394 446.267ZM355.676 455.89C353.126 432.75 346.513 405.042 335.856 372.776L333.957 373.403C344.588 405.591 351.159 433.156 353.688 456.11L355.676 455.89ZM333.958 372.771C329.85 385 326.472 396.452 323.828 407.127L325.769 407.608C328.399 396.993 331.76 385.594 335.854 373.408L333.958 372.771ZM323.829 407.125C321.185 417.701 319.224 427.649 317.949 436.968L319.93 437.239C321.194 428.003 323.14 418.127 325.769 407.61L323.829 407.125ZM317.944 437.004L317.358 442.863L319.349 443.062L319.934 437.203L317.944 437.004ZM318.24 441.969C312.201 442.662 306.169 444.097 300.143 446.27L300.822 448.152C306.71 446.028 312.592 444.631 318.468 443.956L318.24 441.969ZM300.152 446.267C294.227 448.341 287.826 451.297 280.953 455.126L281.926 456.874C288.724 453.086 295.019 450.183 300.813 448.155L300.152 446.267ZM282.433 455.891C279.198 426.381 269.256 389.185 252.641 344.325L250.765 345.019C267.354 389.807 277.235 426.83 280.445 456.109L282.433 455.891ZM252.64 344.321C234.479 295.794 219.2 263.385 206.793 247.236L205.207 248.455C217.409 264.337 232.599 296.479 250.767 345.022L252.64 344.321Z" fill="#0F0F0F" fill-opacity="0.0588235"/>
</g>
<g filter="url(#filter1_d_1_2)">
<path d="M187.354 288.963C181.396 289.646 175.439 291.062 169.482 293.211C163.623 295.262 157.275 298.191 150.439 302C148.779 286.863 145.459 270.115 140.479 251.756C135.596 233.396 129.004 213.035 120.703 190.672C111.621 166.355 103.32 146.189 95.8008 130.174C88.2812 114.158 81.3477 102.049 75 93.8457C78.7109 93.4551 82.4219 92.7715 86.1328 91.7949C89.9414 90.7207 93.5059 89.5488 96.8262 88.2793C100.146 87.0098 103.125 85.7402 105.762 84.4707C108.398 83.1035 110.449 81.834 111.914 80.6621C113.379 86.6191 116.748 98.3867 122.021 115.965C127.393 133.445 134.717 156.883 143.994 186.277C157.373 228.465 166.602 252.537 171.68 258.494C176.953 250.877 187.402 225.975 203.027 183.787C212.5 157.713 219.678 137.303 224.561 122.557C229.541 107.713 232.031 98.582 232.031 95.1641V93.2598C245.996 90.5254 255.957 86.3262 261.914 80.6621C255.762 92.4785 248.926 107.029 241.406 124.314C233.887 141.502 225.586 161.619 216.504 184.666C201.074 223.533 191.553 256.346 187.939 283.104L187.354 288.963Z" fill="white"/>
<path d="M187.354 288.963L187.468 289.956L188.268 289.864L188.349 289.062L187.354 288.963ZM169.482 293.211L169.813 294.155L169.822 294.152L169.482 293.211ZM150.439 302L149.445 302.109L149.61 303.607L150.926 302.874L150.439 302ZM140.479 251.756L139.512 252.013L139.513 252.018L140.479 251.756ZM120.703 190.672L121.641 190.324L121.64 190.322L120.703 190.672ZM75 93.8457L74.8953 92.8512L73.1113 93.039L74.2091 94.4577L75 93.8457ZM86.1328 91.7949L86.3873 92.762L86.3958 92.7598L86.4043 92.7574L86.1328 91.7949ZM105.762 84.4707L106.196 85.3717L106.209 85.3653L106.222 85.3585L105.762 84.4707ZM111.914 80.6621L112.885 80.4233L112.511 78.9036L111.289 79.8812L111.914 80.6621ZM122.021 115.965L121.064 116.252L121.066 116.259L122.021 115.965ZM143.994 186.277L143.041 186.578L143.041 186.58L143.994 186.277ZM171.68 258.494L170.919 259.143L171.762 260.132L172.502 259.063L171.68 258.494ZM203.027 183.787L203.965 184.134L203.967 184.129L203.027 183.787ZM224.561 122.557L223.612 122.239L223.611 122.242L224.561 122.557ZM232.031 93.2598L231.839 92.2784L231.031 92.4366V93.2598H232.031ZM261.914 80.6621L262.801 81.1239L261.225 79.9374L261.914 80.6621ZM241.406 124.314L242.322 124.715L242.323 124.713L241.406 124.314ZM216.504 184.666L217.433 185.035L217.434 185.033L216.504 184.666ZM187.939 283.104L186.948 282.97L186.946 282.987L186.944 283.004L187.939 283.104ZM187.24 287.969C181.201 288.662 175.169 290.097 169.143 292.27L169.822 294.152C175.71 292.028 181.592 290.631 187.468 289.956L187.24 287.969ZM169.152 292.267C163.227 294.341 156.826 297.297 149.953 301.126L150.926 302.874C157.724 299.086 164.019 296.183 169.813 294.155L169.152 292.267ZM151.433 301.891C149.766 286.692 146.435 269.892 141.444 251.494L139.513 252.018C144.483 270.339 147.792 287.035 149.445 302.109L151.433 301.891ZM141.445 251.499C136.552 233.102 129.95 212.71 121.641 190.324L119.766 191.02C128.058 213.36 134.639 233.691 139.512 252.013L141.445 251.499ZM121.64 190.322C112.552 165.991 104.241 145.797 96.706 129.749L94.8956 130.599C102.4 146.581 110.69 166.72 119.766 191.022L121.64 190.322ZM96.706 129.749C89.1738 113.706 82.2039 101.521 75.7909 93.2337L74.2091 94.4577C80.4914 102.576 87.3887 114.61 94.8956 130.599L96.706 129.749ZM75.1047 94.8402C78.8676 94.4441 82.6286 93.7511 86.3873 92.762L85.8783 90.8278C82.2152 91.7918 78.5543 92.466 74.8953 92.8512L75.1047 94.8402ZM86.4043 92.7574C90.2386 91.6759 93.8319 90.4948 97.1833 89.2133L96.469 87.3452C93.1798 88.6029 89.6442 89.7655 85.8614 90.8325L86.4043 92.7574ZM97.1833 89.2133C100.524 87.9359 103.529 86.6555 106.196 85.3717L105.328 83.5697C102.721 84.8249 99.7686 86.0836 96.469 87.3452L97.1833 89.2133ZM106.222 85.3585C108.887 83.9764 111.002 82.6723 112.539 81.443L111.289 79.8812C109.896 80.9957 107.909 82.2307 105.301 83.5829L106.222 85.3585ZM110.943 80.9009C112.415 86.8864 115.791 98.678 121.064 116.252L122.979 115.677C117.705 98.0954 114.343 86.3518 112.885 80.4233L110.943 80.9009ZM121.066 116.259C126.438 133.743 133.763 157.183 143.041 186.578L144.948 185.976C135.671 156.583 128.347 133.148 122.977 115.671L121.066 116.259ZM143.041 186.58C149.733 207.681 155.391 224.267 160.016 236.33C162.328 242.361 164.386 247.273 166.19 251.06C167.984 254.825 169.559 257.548 170.919 259.143L172.441 257.845C171.262 256.462 169.779 253.942 167.996 250.2C166.223 246.479 164.186 241.62 161.883 235.614C157.279 223.605 151.634 207.061 144.947 185.975L143.041 186.58ZM172.502 259.063C175.208 255.155 179.175 246.928 184.394 234.491C189.626 222.021 196.15 205.234 203.965 184.134L202.09 183.44C194.279 204.528 187.766 221.285 182.55 233.718C177.319 246.183 173.425 254.216 170.857 257.925L172.502 259.063ZM203.967 184.129C213.441 158.051 220.623 137.631 225.51 122.871L223.611 122.242C218.733 136.975 211.559 157.375 202.087 183.446L203.967 184.129ZM225.509 122.875C228.002 115.445 229.876 109.431 231.128 104.839C232.369 100.288 233.031 97.0265 233.031 95.1641H231.031C231.031 96.7196 230.448 99.7324 229.199 104.313C227.961 108.852 226.1 114.825 223.612 122.239L225.509 122.875ZM233.031 95.1641V93.2598H231.031V95.1641H233.031ZM232.223 94.2411C246.255 91.4937 256.44 87.2464 262.603 81.3868L261.225 79.9374C255.474 85.4059 245.737 89.5571 231.839 92.2784L232.223 94.2411ZM261.027 80.2003C254.861 92.0438 248.015 106.617 240.489 123.916L242.323 124.713C249.837 107.442 256.663 92.9132 262.801 81.1239L261.027 80.2003ZM240.49 123.914C232.964 141.115 224.659 161.244 215.574 184.299L217.434 185.033C226.513 161.994 234.809 141.889 242.322 124.715L240.49 123.914ZM215.574 184.297C200.129 223.203 190.577 256.1 186.948 282.97L188.93 283.237C192.529 256.591 202.019 223.863 217.433 185.035L215.574 184.297ZM186.944 283.004L186.358 288.863L188.349 289.062L188.934 283.203L186.944 283.004Z" fill="#0F0F0F" fill-opacity="0.0588235"/>
</g>
</g>
<defs>
<filter id="filter0_d_1_2" x="206" y="234.662" width="270.156" height="231.338" filterUnits="userSpaceOnUse" color-interpolation-filters="sRGB">
<feFlood flood-opacity="0" result="BackgroundImageFix"/>
<feColorMatrix in="SourceAlpha" type="matrix" values="0 0 0 0 0 0 0 0 0 0 0 0 0 0 0 0 0 0 127 0" result="hardAlpha"/>
<feOffset dx="6" dy="6"/>
<feGaussianBlur stdDeviation="2"/>
<feComposite in2="hardAlpha" operator="out"/>
<feColorMatrix type="matrix" values="0 0 0 0 0 0 0 0 0 0 0 0 0 0 0 0 0 0 0.5 0"/>
<feBlend mode="normal" in2="BackgroundImageFix" result="effect1_dropShadow_1_2"/>
<feBlend mode="normal" in="SourceGraphic" in2="effect1_dropShadow_1_2" result="shape"/>
</filter>
<filter id="filter1_d_1_2" x="75" y="80.6621" width="196.914" height="231.338" filterUnits="userSpaceOnUse" color-interpolation-filters="sRGB">
<feFlood flood-opacity="0" result="BackgroundImageFix"/>
<feColorMatrix in="SourceAlpha" type="matrix" values="0 0 0 0 0 0 0 0 0 0 0 0 0 0 0 0 0 0 127 0" result="hardAlpha"/>
<feOffset dx="6" dy="6"/>
<feGaussianBlur stdDeviation="2"/>
<feComposite in2="hardAlpha" operator="out"/>
<feColorMatrix type="matrix" values="0 0 0 0 0 0 0 0 0 0 0 0 0 0 0 0 0 0 0.5 0"/>
<feBlend mode="normal" in2="BackgroundImageFix" result="effect1_dropShadow_1_2"/>
<feBlend mode="normal" in="SourceGraphic" in2="effect1_dropShadow_1_2" result="shape"/>
</filter>
<clipPath id="clip0_1_2">
<rect width="512" height="512" fill="white"/>
</clipPath>
</defs>
</svg>
