<svg id="visual" viewBox="0 0 3840 2160" width="3840" height="2160" xmlns="http://www.w3.org/2000/svg" xmlns:xlink="http://www.w3.org/1999/xlink" version="1.1"><path d="M0 390L49.2 390C98.3 390 196.7 390 295.2 364.8C393.7 339.7 492.3 289.3 590.8 339.7C689.3 390 787.7 541 886.2 620.2C984.7 699.3 1083.3 706.7 1181.8 670.7C1280.3 634.7 1378.7 555.3 1477 490.5C1575.3 425.7 1673.7 375.3 1772.2 375.3C1870.7 375.3 1969.3 425.7 2067.8 465.3C2166.3 505 2264.7 534 2363 584.5C2461.3 635 2559.7 707 2658.2 674.5C2756.7 642 2855.3 505 2953.8 436.5C3052.3 368 3150.7 368 3249.2 350C3347.7 332 3446.3 296 3544.8 306.8C3643.3 317.7 3741.7 375.3 3790.8 404.2L3840 433L3840 0L3790.8 0C3741.7 0 3643.3 0 3544.8 0C3446.3 0 3347.7 0 3249.2 0C3150.7 0 3052.3 0 2953.8 0C2855.3 0 2756.7 0 2658.2 0C2559.7 0 2461.3 0 2363 0C2264.7 0 2166.3 0 2067.8 0C1969.3 0 1870.7 0 1772.2 0C1673.7 0 1575.3 0 1477 0C1378.7 0 1280.3 0 1181.8 0C1083.3 0 984.7 0 886.2 0C787.7 0 689.3 0 590.8 0C492.3 0 393.7 0 295.2 0C196.7 0 98.3 0 49.2 0L0 0Z" fill="#0f0f0f"></path><path d="M0 519L49.2 522.7C98.3 526.3 196.7 533.7 295.2 508.5C393.7 483.3 492.3 425.7 590.8 461.7C689.3 497.7 787.7 627.3 886.2 695.8C984.7 764.3 1083.3 771.7 1181.8 732C1280.3 692.3 1378.7 605.7 1477 537.2C1575.3 468.7 1673.7 418.3 1772.2 422C1870.7 425.7 1969.3 483.3 2067.8 530.2C2166.3 577 2264.7 613 2363 670.7C2461.3 728.3 2559.7 807.7 2658.2 768C2756.7 728.3 2855.3 569.7 2953.8 508.3C3052.3 447 3150.7 483 3249.2 465C3347.7 447 3446.3 375 3544.8 385.8C3643.3 396.7 3741.7 490.3 3790.8 537.2L3840 584L3840 431L3790.8 402.2C3741.7 373.3 3643.3 315.7 3544.8 304.8C3446.3 294 3347.7 330 3249.2 348C3150.7 366 3052.3 366 2953.8 434.5C2855.3 503 2756.7 640 2658.2 672.5C2559.7 705 2461.3 633 2363 582.5C2264.7 532 2166.3 503 2067.8 463.3C1969.3 423.7 1870.7 373.3 1772.2 373.3C1673.7 373.3 1575.3 423.7 1477 488.5C1378.7 553.3 1280.3 632.7 1181.8 668.7C1083.3 704.7 984.7 697.3 886.2 618.2C787.7 539 689.3 388 590.8 337.7C492.3 287.3 393.7 337.7 295.2 362.8C196.7 388 98.3 388 49.2 388L0 388Z" fill="#371813"></path><path d="M0 563L49.2 584.5C98.3 606 196.7 649 295.2 638.2C393.7 627.3 492.3 562.7 590.8 587.8C689.3 613 787.7 728 886.2 785.5C984.7 843 1083.3 843 1181.8 810.7C1280.3 778.3 1378.7 713.7 1477 652.5C1575.3 591.3 1673.7 533.7 1772.2 537.3C1870.7 541 1969.3 606 2067.8 649.2C2166.3 692.3 2264.7 713.7 2363 767.7C2461.3 821.7 2559.7 908.3 2658.2 872.3C2756.7 836.3 2855.3 677.7 2953.8 609.2C3052.3 540.7 3150.7 562.3 3249.2 551.7C3347.7 541 3446.3 498 3544.8 512.5C3643.3 527 3741.7 599 3790.8 635L3840 671L3840 582L3790.8 535.2C3741.7 488.3 3643.3 394.7 3544.8 383.8C3446.3 373 3347.7 445 3249.2 463C3150.7 481 3052.3 445 2953.8 506.3C2855.3 567.7 2756.7 726.3 2658.2 766C2559.7 805.7 2461.3 726.3 2363 668.7C2264.7 611 2166.3 575 2067.8 528.2C1969.3 481.3 1870.7 423.7 1772.2 420C1673.7 416.3 1575.3 466.7 1477 535.2C1378.7 603.7 1280.3 690.3 1181.8 730C1083.3 769.7 984.7 762.3 886.2 693.8C787.7 625.3 689.3 495.7 590.8 459.7C492.3 423.7 393.7 481.3 295.2 506.5C196.7 531.7 98.3 524.3 49.2 520.7L0 517Z" fill="#5e1b15"></path><path d="M0 649L49.2 677.8C98.3 706.7 196.7 764.3 295.2 750C393.7 735.7 492.3 649.3 590.8 670.8C689.3 692.3 787.7 821.7 886.2 886.3C984.7 951 1083.3 951 1181.8 929.5C1280.3 908 1378.7 865 1477 803.8C1575.3 742.7 1673.7 663.3 1772.2 652.5C1870.7 641.7 1969.3 699.3 2067.8 739C2166.3 778.7 2264.7 800.3 2363 861.5C2461.3 922.7 2559.7 1023.3 2658.2 983.7C2756.7 944 2855.3 764 2953.8 706.5C3052.3 649 3150.7 714 3249.2 703.2C3347.7 692.3 3446.3 605.7 3544.8 602C3643.3 598.3 3741.7 677.7 3790.8 717.3L3840 757L3840 669L3790.8 633C3741.7 597 3643.3 525 3544.8 510.5C3446.3 496 3347.7 539 3249.2 549.7C3150.7 560.3 3052.3 538.7 2953.8 607.2C2855.3 675.7 2756.7 834.3 2658.2 870.3C2559.7 906.3 2461.3 819.7 2363 765.7C2264.7 711.7 2166.3 690.3 2067.8 647.2C1969.3 604 1870.7 539 1772.2 535.3C1673.7 531.7 1575.3 589.3 1477 650.5C1378.7 711.7 1280.3 776.3 1181.8 808.7C1083.3 841 984.7 841 886.2 783.5C787.7 726 689.3 611 590.8 585.8C492.3 560.7 393.7 625.3 295.2 636.2C196.7 647 98.3 604 49.2 582.5L0 561Z" fill="#871a17"></path><path d="M0 1362L49.2 1347.5C98.3 1333 196.7 1304 295.2 1257.2C393.7 1210.3 492.3 1145.7 590.8 1135C689.3 1124.3 787.7 1167.7 886.2 1207.3C984.7 1247 1083.3 1283 1181.8 1275.7C1280.3 1268.3 1378.7 1217.7 1477 1170.8C1575.3 1124 1673.7 1081 1772.2 1091.8C1870.7 1102.7 1969.3 1167.3 2067.8 1203.3C2166.3 1239.3 2264.7 1246.7 2363 1293.5C2461.3 1340.3 2559.7 1426.7 2658.2 1394.2C2756.7 1361.7 2855.3 1210.3 2953.8 1192.3C3052.3 1174.3 3150.7 1289.7 3249.2 1293.3C3347.7 1297 3446.3 1189 3544.8 1153C3643.3 1117 3741.7 1153 3790.8 1171L3840 1189L3840 755L3790.8 715.3C3741.7 675.7 3643.3 596.3 3544.8 600C3446.3 603.7 3347.7 690.3 3249.2 701.2C3150.7 712 3052.3 647 2953.8 704.5C2855.3 762 2756.7 942 2658.2 981.7C2559.7 1021.3 2461.3 920.7 2363 859.5C2264.7 798.3 2166.3 776.7 2067.8 737C1969.3 697.3 1870.7 639.7 1772.2 650.5C1673.7 661.3 1575.3 740.7 1477 801.8C1378.7 863 1280.3 906 1181.8 927.5C1083.3 949 984.7 949 886.2 884.3C787.7 819.7 689.3 690.3 590.8 668.8C492.3 647.3 393.7 733.7 295.2 748C196.7 762.3 98.3 704.7 49.2 675.8L0 647Z" fill="#a11517"></path><path d="M0 1470L49.2 1473.5C98.3 1477 196.7 1484 295.2 1440.8C393.7 1397.7 492.3 1304.3 590.8 1293.7C689.3 1283 787.7 1355 886.2 1387.3C984.7 1419.7 1083.3 1412.3 1181.8 1401.5C1280.3 1390.7 1378.7 1376.3 1477 1329.5C1575.3 1282.7 1673.7 1203.3 1772.2 1196.2C1870.7 1189 1969.3 1254 2067.8 1311.7C2166.3 1369.3 2264.7 1419.7 2363 1466.3C2461.3 1513 2559.7 1556 2658.2 1516.3C2756.7 1476.7 2855.3 1354.3 2953.8 1332.8C3052.3 1311.3 3150.7 1390.7 3249.2 1405.2C3347.7 1419.7 3446.3 1369.3 3544.8 1358.5C3643.3 1347.7 3741.7 1376.3 3790.8 1390.7L3840 1405L3840 1187L3790.8 1169C3741.7 1151 3643.3 1115 3544.8 1151C3446.3 1187 3347.7 1295 3249.2 1291.3C3150.7 1287.7 3052.3 1172.3 2953.8 1190.3C2855.3 1208.3 2756.7 1359.7 2658.2 1392.2C2559.7 1424.7 2461.3 1338.3 2363 1291.5C2264.7 1244.7 2166.3 1237.3 2067.8 1201.3C1969.3 1165.3 1870.7 1100.7 1772.2 1089.8C1673.7 1079 1575.3 1122 1477 1168.8C1378.7 1215.7 1280.3 1266.3 1181.8 1273.7C1083.3 1281 984.7 1245 886.2 1205.3C787.7 1165.7 689.3 1122.3 590.8 1133C492.3 1143.7 393.7 1208.3 295.2 1255.2C196.7 1302 98.3 1331 49.2 1345.5L0 1360Z" fill="#a11517"></path><path d="M0 1578L49.2 1596C98.3 1614 196.7 1650 295.2 1621.2C393.7 1592.3 492.3 1498.7 590.8 1491.5C689.3 1484.3 787.7 1563.7 886.2 1606.8C984.7 1650 1083.3 1657 1181.8 1635.3C1280.3 1613.7 1378.7 1563.3 1477 1516.5C1575.3 1469.7 1673.7 1426.3 1772.2 1437.2C1870.7 1448 1969.3 1513 2067.8 1570.7C2166.3 1628.3 2264.7 1678.7 2363 1714.7C2461.3 1750.7 2559.7 1772.3 2658.2 1714.7C2756.7 1657 2855.3 1520 2953.8 1484C3052.3 1448 3150.7 1513 3249.2 1516.7C3347.7 1520.3 3446.3 1462.7 3544.8 1466.2C3643.3 1469.7 3741.7 1534.3 3790.8 1566.7L3840 1599L3840 1403L3790.8 1388.7C3741.7 1374.3 3643.3 1345.7 3544.8 1356.5C3446.3 1367.3 3347.7 1417.7 3249.2 1403.2C3150.7 1388.7 3052.3 1309.3 2953.8 1330.8C2855.3 1352.3 2756.7 1474.7 2658.2 1514.3C2559.7 1554 2461.3 1511 2363 1464.3C2264.7 1417.7 2166.3 1367.3 2067.8 1309.7C1969.3 1252 1870.7 1187 1772.2 1194.2C1673.7 1201.3 1575.3 1280.7 1477 1327.5C1378.7 1374.3 1280.3 1388.7 1181.8 1399.5C1083.3 1410.3 984.7 1417.7 886.2 1385.3C787.7 1353 689.3 1281 590.8 1291.7C492.3 1302.3 393.7 1395.7 295.2 1438.8C196.7 1482 98.3 1475 49.2 1471.5L0 1468Z" fill="#871a17"></path><path d="M0 1923L49.2 1919.5C98.3 1916 196.7 1909 295.2 1869.5C393.7 1830 492.3 1758 590.8 1740C689.3 1722 787.7 1758 886.2 1786.8C984.7 1815.7 1083.3 1837.3 1181.8 1833.7C1280.3 1830 1378.7 1801 1477 1775.7C1575.3 1750.3 1673.7 1728.7 1772.2 1717.8C1870.7 1707 1969.3 1707 2067.8 1739.5C2166.3 1772 2264.7 1837 2363 1876.7C2461.3 1916.3 2559.7 1930.7 2658.2 1898.2C2756.7 1865.7 2855.3 1786.3 2953.8 1746.7C3052.3 1707 3150.7 1707 3249.2 1692.7C3347.7 1678.3 3446.3 1649.7 3544.8 1646.2C3643.3 1642.7 3741.7 1664.3 3790.8 1675.2L3840 1686L3840 1597L3790.8 1564.7C3741.7 1532.3 3643.3 1467.7 3544.8 1464.2C3446.3 1460.7 3347.7 1518.3 3249.2 1514.7C3150.7 1511 3052.3 1446 2953.8 1482C2855.3 1518 2756.7 1655 2658.2 1712.7C2559.7 1770.3 2461.3 1748.7 2363 1712.7C2264.7 1676.7 2166.3 1626.3 2067.8 1568.7C1969.3 1511 1870.7 1446 1772.2 1435.2C1673.7 1424.3 1575.3 1467.7 1477 1514.5C1378.7 1561.3 1280.3 1611.7 1181.8 1633.3C1083.3 1655 984.7 1648 886.2 1604.8C787.7 1561.7 689.3 1482.3 590.8 1489.5C492.3 1496.7 393.7 1590.3 295.2 1619.2C196.7 1648 98.3 1612 49.2 1594L0 1576Z" fill="#5e1b15"></path><path d="M0 2010L49.2 2010C98.3 2010 196.7 2010 295.2 1984.8C393.7 1959.7 492.3 1909.3 590.8 1902.2C689.3 1895 787.7 1931 886.2 1949C984.7 1967 1083.3 1967 1181.8 1945.3C1280.3 1923.7 1378.7 1880.3 1477 1858.7C1575.3 1837 1673.7 1837 1772.2 1826.2C1870.7 1815.3 1969.3 1793.7 2067.8 1815.3C2166.3 1837 2264.7 1902 2363 1941.7C2461.3 1981.3 2559.7 1995.7 2658.2 1977.7C2756.7 1959.7 2855.3 1909.3 2953.8 1873.3C3052.3 1837.3 3150.7 1815.7 3249.2 1790.3C3347.7 1765 3446.3 1736 3544.8 1746.8C3643.3 1757.7 3741.7 1808.3 3790.8 1833.7L3840 1859L3840 1684L3790.8 1673.2C3741.7 1662.3 3643.3 1640.7 3544.8 1644.2C3446.3 1647.7 3347.7 1676.3 3249.2 1690.7C3150.7 1705 3052.3 1705 2953.8 1744.7C2855.3 1784.3 2756.7 1863.7 2658.2 1896.2C2559.7 1928.7 2461.3 1914.3 2363 1874.7C2264.7 1835 2166.3 1770 2067.8 1737.5C1969.3 1705 1870.7 1705 1772.2 1715.8C1673.7 1726.7 1575.3 1748.3 1477 1773.7C1378.7 1799 1280.3 1828 1181.8 1831.7C1083.3 1835.3 984.7 1813.7 886.2 1784.8C787.7 1756 689.3 1720 590.8 1738C492.3 1756 393.7 1828 295.2 1867.5C196.7 1907 98.3 1914 49.2 1917.5L0 1921Z" fill="#371813"></path><path d="M0 2161L49.2 2161C98.3 2161 196.7 2161 295.2 2161C393.7 2161 492.3 2161 590.8 2161C689.3 2161 787.7 2161 886.2 2161C984.7 2161 1083.3 2161 1181.8 2161C1280.3 2161 1378.7 2161 1477 2161C1575.3 2161 1673.7 2161 1772.2 2161C1870.7 2161 1969.3 2161 2067.8 2161C2166.3 2161 2264.7 2161 2363 2161C2461.3 2161 2559.7 2161 2658.2 2161C2756.7 2161 2855.3 2161 2953.8 2161C3052.3 2161 3150.7 2161 3249.2 2161C3347.7 2161 3446.3 2161 3544.8 2161C3643.3 2161 3741.7 2161 3790.8 2161L3840 2161L3840 1857L3790.8 1831.7C3741.7 1806.3 3643.3 1755.7 3544.8 1744.8C3446.3 1734 3347.7 1763 3249.2 1788.3C3150.7 1813.7 3052.3 1835.3 2953.8 1871.3C2855.3 1907.3 2756.7 1957.7 2658.2 1975.7C2559.7 1993.7 2461.3 1979.3 2363 1939.7C2264.7 1900 2166.3 1835 2067.8 1813.3C1969.3 1791.7 1870.7 1813.3 1772.2 1824.2C1673.7 1835 1575.3 1835 1477 1856.7C1378.7 1878.3 1280.3 1921.7 1181.8 1943.3C1083.3 1965 984.7 1965 886.2 1947C787.7 1929 689.3 1893 590.8 1900.2C492.3 1907.3 393.7 1957.7 295.2 1982.8C196.7 2008 98.3 2008 49.2 2008L0 2008Z" fill="#0f0f0f"></path></svg>